<svg id="visual" viewBox="0 0 960 540" width="960" height="540" xmlns="http://www.w3.org/2000/svg" xmlns:xlink="http://www.w3.org/1999/xlink" version="1.1"><path d="M0 475L80 451L160 462L240 470L320 457L400 486L480 464L560 455L640 453L720 488L800 473L880 484L960 468L960 541L880 541L800 541L720 541L640 541L560 541L480 541L400 541L320 541L240 541L160 541L80 541L0 541Z" fill="#f5730a"></path><path d="M0 477L80 492L160 492L240 479L320 491L400 480L480 470L560 485L640 495L720 471L800 470L880 469L960 471L960 541L880 541L800 541L720 541L640 541L560 541L480 541L400 541L320 541L240 541L160 541L80 541L0 541Z" fill="#e3630a"></path><path d="M0 475L80 484L160 484L240 500L320 483L400 501L480 475L560 486L640 487L720 484L800 502L880 477L960 497L960 541L880 541L800 541L720 541L640 541L560 541L480 541L400 541L320 541L240 541L160 541L80 541L0 541Z" fill="#d15308"></path><path d="M0 493L80 503L160 487L240 510L320 493L400 491L480 492L560 504L640 509L720 499L800 493L880 489L960 493L960 541L880 541L800 541L720 541L640 541L560 541L480 541L400 541L320 541L240 541L160 541L80 541L0 541Z" fill="#be4407"></path><path d="M0 507L80 504L160 515L240 503L320 517L400 501L480 512L560 504L640 500L720 508L800 502L880 511L960 509L960 541L880 541L800 541L720 541L640 541L560 541L480 541L400 541L320 541L240 541L160 541L80 541L0 541Z" fill="#ac3505"></path><path d="M0 522L80 517L160 516L240 518L320 508L400 522L480 521L560 514L640 523L720 512L800 519L880 509L960 520L960 541L880 541L800 541L720 541L640 541L560 541L480 541L400 541L320 541L240 541L160 541L80 541L0 541Z" fill="#992503"></path><path d="M0 529L80 526L160 520L240 519L320 525L400 525L480 519L560 522L640 522L720 526L800 530L880 522L960 526L960 541L880 541L800 541L720 541L640 541L560 541L480 541L400 541L320 541L240 541L160 541L80 541L0 541Z" fill="#871400"></path></svg>